<svg width="508" height="111" viewBox="0 0 508 111" fill="none" xmlns="http://www.w3.org/2000/svg">
<g filter="url(#filter0_d_0_1)">
<path d="M4.4 37.768H30.128V50.824C33.0293 45.7893 36.3147 42.0773 39.984 39.688C43.7387 37.2133 48.176 35.976 53.296 35.976C58.3307 35.976 62.6827 37.256 66.352 39.816C70.1067 42.2907 72.9227 45.6613 74.8 49.928C80.2613 40.6267 88.1973 35.976 98.608 35.976C103.557 35.976 107.867 37.2987 111.536 39.944C115.291 42.5893 118.192 46.4293 120.24 51.464C122.288 56.4133 123.312 62.2587 123.312 69V101H96.304V69C96.304 64.648 95.536 61.3627 94 59.144C92.5493 56.9253 90.5013 55.816 87.856 55.816C84.9547 55.816 82.4373 57.0533 80.304 59.528C78.256 62.0027 77.232 64.9893 77.232 68.488V101H50.48V69C50.48 64.648 49.712 61.3627 48.176 59.144C46.7253 56.9253 44.6347 55.816 41.904 55.816C39.0027 55.816 36.528 57.0533 34.48 59.528C32.432 62.0027 31.408 64.9893 31.408 68.488V101H4.4V37.768ZM169.439 102.024C162.271 102.024 155.871 100.616 150.239 97.8C144.692 94.984 140.34 91.1013 137.183 86.152C134.111 81.1173 132.575 75.3573 132.575 68.872C132.575 62.3867 134.154 56.6693 137.311 51.72C140.468 46.6853 144.82 42.8027 150.367 40.072C155.999 37.3413 162.399 35.976 169.567 35.976C176.82 35.976 183.22 37.384 188.767 40.2C194.399 42.9307 198.751 46.7707 201.823 51.72C204.895 56.6693 206.431 62.3867 206.431 68.872C206.431 75.4427 204.852 81.2453 201.695 86.28C198.623 91.2293 194.271 95.112 188.639 97.928C183.092 100.659 176.692 102.024 169.439 102.024ZM169.695 82.824C173.194 82.824 176.052 81.544 178.271 78.984C180.575 76.3387 181.727 72.968 181.727 68.872C181.727 64.776 180.575 61.448 178.271 58.888C176.052 56.2427 173.194 54.92 169.695 54.92C166.196 54.92 163.295 56.2427 160.991 58.888C158.772 61.448 157.663 64.776 157.663 68.872C157.663 72.968 158.772 76.3387 160.991 78.984C163.295 81.544 166.196 82.824 169.695 82.824ZM208.878 36.872H238.574L248.43 75.272L258.03 36.872H281.454L261.102 101H229.998L208.878 36.872ZM310.678 102.024C303.51 102.024 297.921 99.72 293.91 95.112C289.899 90.504 287.894 84.232 287.894 76.296V36.872H315.03V75.144C315.03 77.1067 315.542 78.6427 316.566 79.752C317.675 80.776 319.083 81.288 320.79 81.288C322.497 81.288 324.246 80.776 326.038 79.752L327.446 97.544C325.569 98.9947 323.094 100.104 320.022 100.872C317.035 101.64 313.921 102.024 310.678 102.024ZM301.462 27.272C297.451 27.272 294.038 26.0347 291.222 23.56C288.491 21 287.126 17.8853 287.126 14.216C287.126 10.5467 288.577 7.47466 291.478 4.99999C294.379 2.52533 297.707 1.28799 301.462 1.28799C305.387 1.28799 308.758 2.568 311.574 5.128C314.475 7.688 315.926 10.7173 315.926 14.216C315.926 17.9707 314.475 21.0853 311.574 23.56C308.673 26.0347 305.302 27.272 301.462 27.272ZM368.052 102.024C360.969 102.024 354.655 100.616 349.108 97.8C343.647 94.8987 339.38 90.9733 336.308 86.024C333.236 80.9893 331.7 75.3147 331.7 69C331.7 62.5147 333.279 56.7547 336.436 51.72C339.593 46.6853 343.86 42.8027 349.236 40.072C354.612 37.3413 360.585 35.976 367.156 35.976C373.471 35.976 378.847 37.384 383.284 40.2C387.807 42.9307 391.177 46.6853 393.396 51.464C395.615 56.1573 396.724 61.448 396.724 67.336C396.724 68.872 396.639 69.9813 396.468 70.664L358.068 75.656C359.092 78.6427 360.756 80.8187 363.06 82.184C365.364 83.464 368.393 84.104 372.148 84.104C377.951 84.104 384.223 82.6107 390.964 79.624L394.164 96.776C386.228 100.275 377.524 102.024 368.052 102.024ZM376.884 59.528C375.519 54.152 372.276 51.464 367.156 51.464C364.084 51.464 361.652 52.616 359.86 54.92C358.068 57.224 357.129 60.2107 357.044 63.88L376.884 59.528ZM402.185 36.872H428.297L435.593 78.472L444.425 36.872H466.441L475.401 79.496L482.697 36.872H503.689L490.377 101H459.785L452.617 67.08L445.833 101H416.265L402.185 36.872Z" fill="white"/>
</g>
<g filter="url(#filter1_d_0_1)">
<circle cx="302" cy="16" r="16" fill="#F0ABFC"/>
</g>
<defs>
<filter id="filter0_d_0_1" x="0.400024" y="1.28799" width="507.289" height="108.736" filterUnits="userSpaceOnUse" color-interpolation-filters="sRGB">
<feFlood flood-opacity="0" result="BackgroundImageFix"/>
<feColorMatrix in="SourceAlpha" type="matrix" values="0 0 0 0 0 0 0 0 0 0 0 0 0 0 0 0 0 0 127 0" result="hardAlpha"/>
<feOffset dy="4"/>
<feGaussianBlur stdDeviation="2"/>
<feComposite in2="hardAlpha" operator="out"/>
<feColorMatrix type="matrix" values="0 0 0 0 0 0 0 0 0 0 0 0 0 0 0 0 0 0 0.25 0"/>
<feBlend mode="normal" in2="BackgroundImageFix" result="effect1_dropShadow_0_1"/>
<feBlend mode="normal" in="SourceGraphic" in2="effect1_dropShadow_0_1" result="shape"/>
</filter>
<filter id="filter1_d_0_1" x="282" y="0" width="40" height="40" filterUnits="userSpaceOnUse" color-interpolation-filters="sRGB">
<feFlood flood-opacity="0" result="BackgroundImageFix"/>
<feColorMatrix in="SourceAlpha" type="matrix" values="0 0 0 0 0 0 0 0 0 0 0 0 0 0 0 0 0 0 127 0" result="hardAlpha"/>
<feOffset dy="4"/>
<feGaussianBlur stdDeviation="2"/>
<feComposite in2="hardAlpha" operator="out"/>
<feColorMatrix type="matrix" values="0 0 0 0 0 0 0 0 0 0 0 0 0 0 0 0 0 0 0.25 0"/>
<feBlend mode="normal" in2="BackgroundImageFix" result="effect1_dropShadow_0_1"/>
<feBlend mode="normal" in="SourceGraphic" in2="effect1_dropShadow_0_1" result="shape"/>
</filter>
</defs>
</svg>
